HIERARCHY
ROOT Hips
{
	OFFSET 0.00000 0.00000 0.00000
	CHANNELS 6 Xposition Yposition Zposition Zrotation Yrotation Xrotation 
	JOINT LHipJoint
	{
		OFFSET 0 0 0
		CHANNELS 3 Zrotation Yrotation Xrotation
		JOINT LeftHip
		{
			OFFSET 1.42489 -1.84941 0.69647
			CHANNELS 3 Zrotation Yrotation Xrotation
			JOINT LeftKnee
			{
				OFFSET 2.44443 -6.71602 0.00000
				CHANNELS 3 Zrotation Yrotation Xrotation
				JOINT LeftAnkle
				{
					OFFSET 2.62838 -7.22137 0.00000
					CHANNELS 3 Zrotation Yrotation Xrotation
					JOINT LeftToe
					{
						OFFSET 0.24036 -0.66037 2.29953
						CHANNELS 3 Zrotation Yrotation Xrotation
						End Site
						{
							OFFSET 0.00000 -0.00000 1.19837
						}
					}
				}
			}
		}
	}
	JOINT RHipJoint
	{
		OFFSET 0 0 0
		CHANNELS 3 Zrotation Yrotation Xrotation
		JOINT RightHip
		{
			OFFSET -1.37055 -1.84941 0.69647
			CHANNELS 3 Zrotation Yrotation Xrotation
			JOINT RightKnee
			{
				OFFSET -2.54834 -7.00152 0.00000
				CHANNELS 3 Zrotation Yrotation Xrotation
				JOINT RightAnkle
				{
					OFFSET -2.65692 -7.29983 0.00000
					CHANNELS 3 Zrotation Yrotation Xrotation
					JOINT RightToe
					{
						OFFSET -0.18839 -0.51760 2.29390
						CHANNELS 3 Zrotation Yrotation Xrotation
						End Site
						{
							OFFSET -0.00000 -0.00000 1.18261
						}
					}
				}
			}
		}
	}
	JOINT lowerback
	{
		OFFSET 0 0 0
		CHANNELS 3 Zrotation Yrotation Xrotation
		JOINT Chest
		{
			OFFSET 0.05220 2.15489 0.05011
			CHANNELS 3 Zrotation Yrotation Xrotation
			JOINT Chest2
			{
				OFFSET -0.07653 2.14219 -0.05668
				CHANNELS 3 Zrotation Yrotation Xrotation
				JOINT lowerneck
				{
					OFFSET 0 0 0
					CHANNELS 3 Zrotation Yrotation Xrotation
					JOINT Neck
					{
						OFFSET 0.01370 1.58638 0.01447
						CHANNELS 3 Zrotation Yrotation Xrotation
						JOINT Head
						{
							OFFSET 0.23548 1.54190 -0.21747
							CHANNELS 3 Zrotation Yrotation Xrotation
							End Site
							{
								OFFSET 0.07132 1.59823 -0.08163
							}
						}
					}
				}
				JOINT LeftCollar
				{
					OFFSET 0 0 0
					CHANNELS 3 Zrotation Yrotation Xrotation
					JOINT LeftShoulder
					{
						OFFSET 3.47056 1.45357 -0.58896
CHANNELS 3 Zrotation Xrotation Yrotation
						JOINT LeftElbow
						{
OFFSET 0 -5.190690 0.000000
CHANNELS 3 Zrotation Xrotation Yrotation
							JOINT LeftWrist
							{
OFFSET 0 -3.300160 0.000000
CHANNELS 3 Zrotation Xrotation Yrotation
								JOINT lhand
								{
									OFFSET 0 0 0
CHANNELS 3 Zrotation Xrotation Yrotation
									JOINT LFingers
									{
OFFSET 0 -0.707700 0.000000
CHANNELS 3 Zrotation Xrotation Yrotation
										End Site
										{
OFFSET 0 -0.570560 0.000000
										}
									}
								}
								JOINT LThumb
								{
OFFSET 0 0.000000 0.000000
CHANNELS 3 Zrotation Xrotation Yrotation
									End Site
									{
OFFSET 0 -0.579280 0.579280
									}
								}
							}
						}
					}
				}
				JOINT RightCollar
				{
					OFFSET 0 0 0
					CHANNELS 3 Zrotation Yrotation Xrotation
					JOINT RightShoulder
					{
						OFFSET -2.89018 2.03305 -0.26731
CHANNELS 3 Zrotation Xrotation Yrotation
						JOINT RightElbow
						{
OFFSET 0 -5.239240 0.000000
CHANNELS 3 Zrotation Xrotation Yrotation
							JOINT RightWrist
							{
OFFSET 0 -3.329530 0.000000
CHANNELS 3 Zrotation Xrotation Yrotation
								JOINT rhand
								{
									OFFSET 0 0 0
CHANNELS 3 Zrotation Xrotation Yrotation
									JOINT RFingers
									{
OFFSET 0 -0.607410 0.000000
CHANNELS 3 Zrotation Xrotation Yrotation
										End Site
										{
OFFSET 0 -0.489710 0.000000
										}
									}
								}
								JOINT RThumb
								{
OFFSET 0 0.000000 0.000000
CHANNELS 3 Zrotation Xrotation Yrotation
									End Site
									{
OFFSET 0 -0.497190 0.497190
									}
								}
							}
						}
					}
				}
			}
		}
	}
}
MOTION
Frames: 6
Frame Time: 0.008333333333333333
16.154000 17.630600 -29.466100 -4.800800 -17.040200 6.293100 0.000000 0.000000 0.000000 -17.018800 4.738300 -15.481600 2.301800 9.468200 27.271200 1.464000 0.680900 -23.135100 0.010500 -0.661100 -1.816700 0.000000 0.000000 0.000000 22.812800 3.038100 -19.176200 -4.960900 -13.339700 40.653600 -1.444900 -7.852000 -26.754600 -0.387300 3.996500 -11.066800 2.213200 -1.398500 -3.035200 -1.390700 -1.930100 3.149900 -2.818800 -0.855000 4.839200 -11.137800 -9.556400 -1.925300 19.666100 -12.830500 -2.105000 7.327500 -6.381700 1.789300 -0.000000 0.000000 0.000000 13.025000 -6.104200 -32.505700 19.618500 -30.180000 5.338200 11.385300 -11.824000 4.720200 0.000000 0.000000 0.000000 -7.125000 0.000000 0.000000 -11.423500 25.152900 -5.591000 -0.000000 0.000000 0.000000 -4.661100 2.535000 36.706500 -18.703100 -29.048000 -4.885800 -12.415900 -1.543200 7.714500 0.000000 0.000000 0.000000 7.125000 0.000000 -0.000000 12.264100 37.615000 2.270600
16.170514 17.629898 -29.461778 -4.790042 -17.446054 6.313952 0.000000 0.000000 0.000000 -17.148272 4.895775 -15.475316 2.292828 9.451140 27.216959 1.469911 0.869002 -23.250605 0.009490 -0.630107 -1.731501 0.000000 0.000000 0.000000 22.618776 3.800723 -19.321905 -5.055377 -13.445889 41.061328 -1.522217 -7.222455 -26.897498 -0.520919 4.624235 -12.840047 1.997857 -1.315816 -3.059559 -1.485699 -1.804214 3.085870 -2.787233 -0.799648 4.797206 -10.985659 -9.618611 -2.338493 19.676075 -12.940036 -1.762477 7.267709 -6.404776 1.964801 0.000000 0.000000 0.000000 13.411679 -6.614730 -32.980047 19.095857 -29.537629 5.078007 11.553707 -11.869512 4.692295 0.000000 0.000000 0.000000 -7.125000 0.000000 0.000000 -11.300831 25.178455 -5.521781 0.000000 0.000000 0.000000 -4.575129 2.715018 36.590701 -18.720955 -29.070470 -4.894509 -12.311481 -1.585597 7.655621 0.000000 0.000000 0.000000 7.125000 0.000000 0.000000 12.340047 37.549363 2.305404
16.183489 17.627610 -29.445866 -4.890605 -17.644310 6.153877 0.000000 0.000000 0.000000 -17.117882 4.869108 -15.151892 2.290640 9.446980 27.203709 1.483855 1.136868 -23.461825 0.009655 -0.634048 -1.742389 0.000000 0.000000 0.000000 22.602540 4.530257 -19.058806 -5.050070 -13.440031 41.038713 -1.724581 -5.372970 -27.228991 -0.578417 4.868737 -13.534789 2.017623 -1.363861 -3.163001 -1.528348 -1.869615 3.152480 -2.851987 -0.827914 4.919929 -11.072716 -9.561549 -2.265990 19.785406 -12.877989 -1.713914 7.324095 -6.376050 1.971259 0.000000 0.000000 0.000000 13.626376 -6.827889 -32.976153 18.713143 -29.060454 4.890756 11.448221 -11.743815 4.747238 0.000000 0.000000 0.000000 -7.125000 0.000000 0.000000 -11.374592 25.124917 -5.573728 0.000000 0.000000 0.000000 -4.624690 2.919739 36.793467 -18.779348 -29.143635 -4.922914 -12.265640 -1.625395 7.724424 0.000000 0.000000 0.000000 7.125000 0.000000 0.000000 12.391654 37.615093 2.295024
16.192808 17.626125 -29.433855 -4.979810 -17.765940 6.049068 0.000000 0.000000 0.000000 -17.078051 4.782282 -14.915471 2.293337 9.452118 27.220052 1.493725 1.373690 -23.630984 0.009777 -0.639501 -1.757284 0.000000 0.000000 0.000000 22.632813 5.219681 -18.750496 -4.965711 -13.345056 40.674369 -1.861936 -3.881734 -27.408422 -0.665172 5.215593 -14.524561 1.978561 -1.392653 -3.199953 -1.553549 -1.905550 3.172566 -2.860379 -0.845791 4.960060 -11.073828 -9.564272 -2.379901 19.853364 -12.896303 -1.584920 7.335322 -6.375255 2.035871 0.000000 0.000000 0.000000 13.817245 -7.051612 -33.112755 18.290471 -28.527398 4.687249 11.420679 -11.599788 4.769849 0.000000 0.000000 0.000000 -7.125000 0.000000 0.000000 -11.393225 25.102706 -5.589177 0.000000 0.000000 0.000000 -4.619214 3.098069 36.793495 -18.762058 -29.121915 -4.914523 -12.235333 -1.642218 7.708589 0.000000 0.000000 0.000000 7.125000 0.000000 0.000000 12.413921 37.597192 2.304911
16.198809 17.623891 -29.420094 -5.086511 -17.812774 5.935667 0.000000 0.000000 0.000000 -17.000283 4.641200 -14.665032 2.303157 9.470924 27.279849 1.505717 1.596635 -23.813092 0.010210 -0.652206 -1.792300 0.000000 0.000000 0.000000 22.731058 5.831878 -18.363316 -4.831111 -13.190867 40.087547 -1.980733 -2.378568 -27.538159 -0.732023 5.466039 -15.242874 1.976066 -1.452814 -3.269996 -1.558448 -1.986798 3.191074 -2.872714 -0.885010 5.014252 -11.116431 -9.539766 -2.399323 19.927430 -12.877935 -1.492663 7.364203 -6.361943 2.071411 0.000000 0.000000 0.000000 13.942580 -7.175890 -33.164199 17.845301 -27.958425 4.476557 11.372702 -11.402386 4.754746 0.000000 0.000000 0.000000 -7.125000 0.000000 0.000000 -11.430031 25.118564 -5.603627 0.000000 0.000000 0.000000 -4.623784 3.281497 36.802706 -18.697913 -29.041629 -4.883361 -12.206018 -1.623420 7.690906 0.000000 0.000000 0.000000 7.125000 0.000000 0.000000 12.434914 37.577637 2.315007
16.200887 17.620426 -29.404693 -5.203048 -17.842074 5.847662 0.000000 0.000000 0.000000 -16.899260 4.493695 -14.457698 2.321580 9.505974 27.391281 1.521369 1.792289 -24.013392 0.010625 -0.666084 -1.830477 0.000000 0.000000 0.000000 22.885019 6.377430 -17.936954 -4.650139 -12.978388 39.287959 -2.061667 -0.989985 -27.537971 -0.785747 5.658695 -15.797342 2.026025 -1.503637 -3.415976 -1.573905 -2.059168 3.219176 -2.927861 -0.916592 5.120306 -11.128839 -9.518943 -2.434572 19.994505 -12.864615 -1.397820 7.384770 -6.350416 2.108587 0.000000 0.000000 0.000000 14.050591 -7.275081 -33.182786 17.358553 -27.327703 4.250826 11.319281 -11.167743 4.716822 0.000000 0.000000 0.000000 -7.125000 0.000000 0.000000 -11.472823 25.157228 -5.614920 0.000000 0.000000 0.000000 -4.571851 3.420850 36.734346 -18.573361 -28.885098 -4.823073 -12.156821 -1.548620 7.671244 0.000000 0.000000 0.000000 7.125000 0.000000 0.000000 12.472196 37.554870 2.329332
